# AST/ASF file generated using VICON BodyLanguage
# -----------------------------------------------
:version 1.10
:name VICON
:units
  mass 1.0
  length 0.45
  angle deg
:documentation
   .ast/.asf automatically generated from VICON data using
   VICON BodyBuilder and BodyLanguage model FoxedUp or BRILLIANT.MOD
:root
   order TX TY TZ RX RY RZ
   axis XYZ
   position 0 0 0  
   orientation 0 0 0 
:bonedata
  begin
     id 1 
     name lhipjoint
     direction 0.635376 -0.686425 0.353719 
     length 2.47244 
     axis 0 0 0  XYZ
  end
  begin
     id 2 
     name lfemur
     direction 0.34202 -0.939693 0  
     length 7.25268  
     axis 0 0 20  XYZ
    dof rx ry rz
    limits (-160.0 20.0)
           (-70.0 70.0)
           (-60.0 70.0)
  end
  begin
     id 3 
     name ltibia
     direction 0.34202 -0.939693 0   
     length 7.6767   
     axis 0 0 20   XYZ
    dof rx
    limits (-10.0 170.0)
  end
  begin
     id 4 
     name lfoot
     direction 0.0803374 -0.220725 0.972022   
     length 2.22945   
     axis -90 7.62852e-016 20   XYZ
    dof rx rz
    limits (-45.0 90.0)
           (-70.0 20.0)
  end
  begin
     id 5 
     name ltoes
     direction 1.53579e-011 -4.21994e-011 1   
     length 1.11848   
     axis -90 7.62852e-016 20   XYZ
    dof rx
    limits (-90.0 20.0)
  end
  begin
     id 6 
     name rhipjoint
     direction -0.664428 -0.664335 0.342336   
     length 2.55466  
     axis 0 0 0  XYZ 
  end
  begin
     id 7 
     name rfemur
     direction -0.34202 -0.939693 0   
     length 6.83172   
     axis 0 0 -20   XYZ
    dof rx ry rz
    limits (-160.0 20.0)
           (-70.0 70.0)
           (-70.0 60.0)
  end
  begin
     id 8 
     name rtibia
     direction -0.34202 -0.939693 0   
     length 7.62692   
     axis 0 0 -20   XYZ
    dof rx
    limits (-10.0 170.0)
 end
 begin
     id 9 
     name rfoot
     direction -0.0949276 -0.260811 0.960711   
     length 2.19684  
     axis -90 -7.62852e-016 -20   XYZ
    dof rx rz
    limits (-45.0 90.0)
           (-20.0 70.0)
  end
  begin
     id 10 
     name rtoes
     direction -1.53543e-011 -4.2183e-011 1   
     length 1.09848   
     axis -90 -7.62852e-016 -20   XYZ
    dof rx
    limits (-90.0 20.0)
  end
  begin
     id 11 
     name lowerback
     direction 0.0118782 0.999815 -0.0151555   
     length 2.15772   
     axis 0 0 0   XYZ
    dof rx ry rz
    limits (-20.0 45.0)
           (-30.0 30.0)
           (-30.0 30.0)
  end
  begin
     id 12 
     name upperback
     direction 0.00130825 0.999065 0.0432113   
     length 2.14863   
     axis 0 0 0   XYZ
    dof rx ry rz
    limits (-20.0 45.0)
           (-30.0 30.0)
           (-30.0 30.0)
  end
  begin
     id 13 
     name thorax
     direction -0.00347005 0.998773 0.0494011   
     length 2.14936   
     axis 0 0 0   XYZ
    dof rx ry rz
    limits (-20.0 45.0)
           (-30.0 30.0)
           (-30.0 30.0)
  end
  begin
     id 14 
     name lowerneck
     direction -0.0262159 0.99424 0.103921   
     length 1.69373   
     axis 0 0 0   XYZ
    dof rx ry rz
    limits (-20.0 45.0)
           (-30.0 30.0)
           (-30.0 30.0)
  end
  begin
     id 15 
     name upperneck
     direction 0.0353511 0.977394 -0.20845   
     length 1.70857   
     axis 0 0 0   XYZ
    dof rx ry rz
    limits (-20.0 45.0)
           (-30.0 30.0)
           (-30.0 30.0)
  end
  begin
     id 16
     name head
     direction 0.0139214 0.996594 -0.0812836  
     length 1.72777  
     axis 0 0 0   XYZ
    dof rx ry rz
    limits (-20.0 45.0)
           (-30.0 30.0)
           (-30.0 30.0)
  end
  begin
     id 17 
     name lclavicle
     direction 0.841247 0.537205 -0.0609508  
     length 3.55371  
     axis 0 0 0   XYZ
    dof ry rz
    limits (-20.0 10.0)
           (0.0 20.0)
  end
  begin
     id 18 
     name lhumerus
     direction 1 -4.48964e-011 1.60116e-018   
     length 4.91377   
     axis -180 -30 -90   XYZ
    dof rx ry rz
    limits (-60.0 90.0)
           (-90.0 90.0)
           (-90.0 90.0)
  end
  begin
     id 19
     name lradius
     direction 1 -4.48989e-011 -8.93847e-027   
     length 3.00291   
     axis -180 -30 -90   XYZ
    dof rx
    limits (-10.0 170.0)
  end
  begin
     id 20
     name lwrist
     direction 1 -4.48932e-011 -7.31504e-027   
     length 1.50145   
     axis 5.74121e-015 90 90   XYZ
    dof ry
    limits (-180.0 0.0)
 end
  begin
     id 21 
     name lhand
     direction 1 -4.48971e-011 -1.46301e-026   
     length 0.450922   
     axis 9.33524e-015 90 90   XYZ
    dof rx rz
    limits (-90.0 90.0)
           (-45.0 45.0)
  end
  begin
     id 22 
     name lfingers
     direction 1 -4.49039e-011 -2.92602e-026   
     length 0.363545   
     axis 1.86705e-014 90 90   XYZ
    dof rx
    limits (0.0 90.0)
  end
  begin
     id 23
     name lthumb
     direction 0.707107 -6.34941e-011 0.707107   
     length 0.52198   
     axis -90 45 2.85299e-015   XYZ
    dof rx rz
    limits (-45.0 45.0)
           (-45.0 45.0)
  end
  begin
     id 24 
     name rclavicle
     direction -0.825079 0.56158 -0.0622297   
     length 3.39909  
     axis 0 0 0   XYZ 
    dof ry rz
    limits (-10.0 20.0)
           (-20.0 0.0)
  end
  begin
     id 25 
     name rhumerus
     direction -1 -4.48965e-011 1.61691e-027  
     length 4.86725   
     axis -180 30 90   XYZ
    dof rx ry rz
    limits (-90.0 60.0)
           (-90.0 90.0)
           (-90.0 90.0)
  end
  begin
     id 26 
     name rradius
     direction -1 -4.48964e-011 -2.25776e-027   
     length 3.17144   
     axis -180 30 90   XYZ
    dof rx
    limits (-10.0 170.0)
  end
  begin
     id 27 
     name rwrist
     direction -1 -4.48961e-011 -7.31504e-027   
     length 1.58572   
     axis 5.74121e-015 -90 -90   XYZ
    dof ry
    limits (-180.0 0.0)
  end
  begin
     id 28
     name rhand
     direction -1 -4.49013e-011 -1.46301e-026   
     length 0.419368   
     axis 9.33524e-015 -90 -90   XYZ
    dof rx rz
    limits (-90.0 90.0)
           (-45.0 45.0)
  end
  begin
     id 29
     name rfingers
     direction -1 -4.489e-011 -2.92602e-026   
     length 0.338105   
     axis 1.86705e-014 -90 -90   XYZ
    dof rx
    limits (0.0 90.0)
  end
  begin
     id 30
     name rthumb
     direction -0.707107 -6.35022e-011 0.707107   
     length 0.485453   
     axis -90 -45 -2.85299e-015   XYZ
    dof rx rz
    limits (-45.0 45.0)
           (-45.0 45.0)
  end
:hierarchy
  begin
    root lhipjoint rhipjoint lowerback
    lhipjoint lfemur
    lfemur ltibia
    ltibia lfoot
    lfoot ltoes
    rhipjoint rfemur
    rfemur rtibia
    rtibia rfoot
    rfoot rtoes
    lowerback upperback
    upperback thorax
    thorax lowerneck lclavicle rclavicle
    lowerneck upperneck
    upperneck head
    lclavicle lhumerus
    lhumerus lradius
    lradius lwrist
    lwrist lhand lthumb
    lhand lfingers
    rclavicle rhumerus
    rhumerus rradius
    rradius rwrist
    rwrist rhand rthumb
    rhand rfingers
  end

#!OML:ASF H:\Swim 2\Project 1\Capture day 1\Session 1\male.ASF
:FULLY-SPECIFIED
:DEGREES
515
root 8.11314 9.84804 12.2642 98.228 -2.71966 -0.255631
lowerback -2.983 2.081 -8.09329
upperback -8.1177 2.83886 0.338738
thorax -7.31411 2.01461 4.76691
lowerneck -20.1689 -3.19874 3.57
upperneck 32.1252 -2.082 -10.6887
head 14.1931 -1.85047 -5.34422
rclavicle 9.54166e-015 6.75868e-015
rhumerus 8.55497 7.75451 -17.6658
rradius 92.1037
rwrist -19.0284
rhand -11.0761 9.82692
rfingers 7.12502
rthumb 14.9472 -19.6137
lclavicle 9.54166e-015 6.75868e-015
lhumerus 91.6151 13.456 42.6639
lradius 22.9859
lwrist 9.96005
lhand -29.8876 -11.4412
lfingers 7.12502
lthumb -3.20895 18.5144
rfemur -32.5079 6.79435 21.0013
rtibia 16.1099
rfoot 36.5068 -3.03755
rtoes 22.57
lfemur -25.5926 -9.35281 -18.3304
ltibia 37.9142
lfoot 22.1823 0.400823
ltoes 30.6847
516
root 8.11754 9.84903 12.2665 98.2866 -2.62764 -0.0033958
lowerback -2.96594 1.87607 -8.12962
upperback -8.24627 2.54736 0.305769
thorax -7.4223 1.87608 4.76266
lowerneck -19.9917 -3.23562 3.24773
upperneck 32.0943 -2.05011 -10.581
head 14.1534 -1.85907 -5.22771
rclavicle -5.56597e-014 -3.81667e-014
rhumerus 6.58386 8.26112 -19.1487
rradius 93.2996
rwrist -18.6692
rhand -11.4326 10.2111
rfingers 7.12502
rthumb 14.6037 -19.2547
lclavicle -5.56597e-014 -3.81667e-014
lhumerus 91.9346 12.7219 42.844
lradius 22.54
lwrist 8.86997
lhand -30.0933 -11.0175
lfingers 7.12502
lthumb -3.40755 18.935
rfemur -32.2133 6.34661 21.5372
rtibia 16.0296
rfoot 36.3175 -3.149
rtoes 22.443
lfemur -25.8477 -9.0086 -18.2218
ltibia 38.108
lfoot 22.7068 -0.127233
ltoes 30.7016
517
root 8.12066 9.85056 12.2645 98.3783 -2.50362 0.202037
lowerback -2.98747 1.66495 -8.05841
upperback -8.35477 2.24983 0.235317
thorax -7.47595 1.72262 4.66073
lowerneck -19.865 -3.22414 2.97202
upperneck 32.0102 -1.97167 -10.4719
head 14.1051 -1.8439 -5.11011
rclavicle 2.38542e-014 -7.7526e-015
rhumerus 4.61494 8.7493 -20.7679
rradius 94.2555
rwrist -18.2806
rhand -12.5744 10.2602
rfingers 7.12502
rthumb 13.5034 -19.282
lclavicle 2.38542e-014 -7.7526e-015
lhumerus 92.064 12.3119 42.4293
lradius 22.2663
lwrist 8.16924
lhand -30.2137 -10.3659
lfingers 7.12502
lthumb -3.5238 19.5847
rfemur -31.9203 5.9838 22.0936
rtibia 16.1603
rfoot 36.144 -3.04709
rtoes 22.571
lfemur -26.2636 -8.67958 -18.0337
ltibia 38.1893
lfoot 22.8374 -0.868742
ltoes 30.5252
518
root 8.12259 9.85251 12.2584 98.4942 -2.35984 0.367647
lowerback -3.03936 1.45169 -7.90321
upperback -8.44684 1.95109 0.130022
thorax -7.48844 1.55888 4.47585
lowerneck -19.7818 -3.17604 2.74162
upperneck 31.8951 -1.85817 -10.3697
head 14.0549 -1.81042 -4.99781
rclavicle -4.29375e-014 -1.41137e-014
rhumerus 2.64589 9.22428 -22.5
rradius 94.9669
rwrist -17.8731
rhand -14.3481 10.0273
rfingers 7.12502
rthumb 11.7935 -19.6207
lclavicle -4.29375e-014 -1.41137e-014
lhumerus 92.0341 12.1845 41.4872
lradius 22.1651
lwrist 7.92818
lhand -30.2125 -9.5669
lfingers 7.12502
lthumb -3.52264 20.3837
rfemur -31.6243 5.69866 22.6529
rtibia 16.507
rfoot 35.9602 -2.7594
rtoes 22.8999
lfemur -26.8315 -8.39888 -17.7787
ltibia 38.1717
lfoot 22.6149 -1.66563
ltoes 30.3041
519
root 8.12316 9.85459 12.2487 98.6334 -2.20918 0.50079
lowerback -3.11724 1.23452 -7.68881
upperback -8.52998 1.648 -0.00600136
thorax -7.47379 1.38597 4.22571
lowerneck -19.731 -3.09253 2.56131
upperneck 31.7653 -1.70309 -10.2991
head 14.0075 -1.75808 -4.90141
rclavicle -2.06736e-014 -2.88238e-014
rhumerus 0.702843 9.68713 -24.3026
rradius 95.4362
rwrist -17.5286
rhand -16.4738 9.54272
rfingers 7.12502
rthumb 9.74309 -20.2119
lclavicle -2.06736e-014 -2.88238e-014
lhumerus 91.8815 12.2624 40.1597
lradius 22.2058
lwrist 8.11078
lhand -30.1187 -8.73126
lfingers 7.12502
lthumb -3.43212 21.2209
rfemur -31.3233 5.48693 23.1945
rtibia 17.0586
rfoot 35.7968 -2.32942
rtoes 23.3776
lfemur -27.5506 -8.19594 -17.4697
ltibia 38.0787
lfoot 22.1204 -2.32247
ltoes 30.11
520
root 8.12221 9.85647 12.2362 98.7816 -2.06412 0.614309
lowerback -3.19968 1.01302 -7.4475
upperback -8.61136 1.33795 -0.162225
thorax -7.45577 1.20638 3.93886
lowerneck -19.693 -2.98669 2.42162
upperneck 31.613 -1.51986 -10.2668
head 13.9541 -1.69424 -4.82261
rclavicle -9.54166e-015 -1.63003e-014
rhumerus -1.21563 10.1417 -26.1574
rradius 95.6925
rwrist -17.3322
rhand -18.6938 8.85686
rfingers 7.12502
rthumb 7.60067 -20.9866
lclavicle -9.54166e-015 -1.63003e-014
lhumerus 91.7211 12.3907 38.839
lradius 22.2816
lwrist 8.42038
lhand -29.9827 -7.97932
lfingers 7.12502
lthumb -3.30074 21.9749
rfemur -30.9956 5.33511 23.7037
rtibia 17.7877
rfoot 35.6539 -1.77699
rtoes 23.7899
lfemur -28.3988 -8.09222 -17.1215
ltibia 37.9317
lfoot 21.4677 -2.66773
ltoes 30.0277
